# xmcd
#
# Track frame offsets:
#	150
#	10520
#	21737
#	35440
#	43218
#	54765
#	68327
#	80208
#	92104
#	105781
#	114994
#	127885
#	140560
#	153368
#	166503
#	175558
#	187101
#	200926
#	213434
#	225369
#
# Disc length: 3180 seconds
#
# Revision: 0
# Processed by: cddbd v1.5.2PL0 Copyright (c) Steve Scherf et al.
# Submitted via: EasyCDDAExtractor 16.0.8.2
#
DISCID=fc0c6a14
DTITLE=Συλλογικός δίσκος - Όταν τα σλόου τα έλεγαν μπλουζ 2-4
DYEAR=2011
DGENRE=Ξένη σλόου
TTITLE0=Connie Francis - Who's sorry now?
TTITLE1=Dinah Washington - What a difference a day makes
TTITLE2=Buddy Holly - True love ways
TTITLE3=Paul Anka-George Hamilton - The teen commandments
TTITLE4=James Brown - Try me
TTITLE5=Johnny Dorelli - Love in Portofino
TTITLE6=Tommy Edwards - It's all in the game
TTITLE7=The Platters - My dream
TTITLE8=The Four Aces - Three coins in the fountain
TTITLE9=Gladys Knight-The Pips - Every beat of my heart
TTITLE10=Elvis Presley - Playing for keeps
TTITLE11=Ed Townsend - For your love
TTITLE12=The Platters - Only because
TTITLE13=Nat King Cole - You made me love you
TTITLE14=Richard Allan Ream - As time goes by
TTITLE15=Frankie Avalon - Why
TTITLE16=Paul Anka - (All of a sudden) My heart sings
TTITLE17=Chuck Willis - My life
TTITLE18=Elvis Presley - I need you so
TTITLE19=Dinah Washington - Tell me why
EXTD=
EXTT0=
EXTT1=
EXTT2=
EXTT3=
EXTT4=
EXTT5=
EXTT6=
EXTT7=
EXTT8=
EXTT9=
EXTT10=
EXTT11=
EXTT12=
EXTT13=
EXTT14=
EXTT15=
EXTT16=
EXTT17=
EXTT18=
EXTT19=
PLAYORDER=
